# xmcd
#
# Track frame offsets:
#	150
#	13707
#	29307
#	41421
#	56038
#	69733
#	85755
#	98376
#	112639
#	125957
#	139241
#	152724
#	165052
#	177380
#	190498
#	202687
#	217343
#	229826
#	244213
#	258367
#	272072
#	283741
#	297494
#	312873
#	327057
#	340516
#
# Disc length: 4695 seconds
#
# Revision: 0
# Processed by: cddbd v1.5.2PL0 Copyright (c) Steve Scherf et al.
# Submitted via: EasyCDDAExtractor 16.0.6.1
#
DISCID=7612551a
DTITLE=Κύπριος Στράτος - Συλλογή 45 στροφών-Κύπριος Στράτος 1
DYEAR=2007
DGENRE=Λαϊκή
TTITLE0=Κύπριος Στράτος - Αχ τι μάτια
TTITLE1=Κύπριος Στράτος-Σακελλαρίου Ρίτα - Φύγε κι άσε με
TTITLE2=Κύπριος Στράτος - Πρόσεξε την συμβουλή μου
TTITLE3=Κύπριος Στράτος-Σακελλαρίου Ρίτα - Το κορίτσι μου ζηλεύει
TTITLE4=Κύπριος Στράτος - Άσε πια τα πείσματα
TTITLE5=Κύπριος Στράτος - Εχθές αργά το δειλινό
TTITLE6=Κύπριος Στράτος-Ζανέτ Λίτσα - Εχθές επαραφέρθηκα
TTITLE7=Κύπριος Στράτος - Είμαι σε όλα παλληκάρι
TTITLE8=Κύπριος Στράτος - Είναι μεγάλος ο Θεός
TTITLE9=Κύπριος Στράτος-Σακελλαρίου Ρίτα - Ποιος σού είπε, δεν σ' αγαπώ
TTITLE10=Κύπριος Στράτος - Περιφρόνα με γλυκειά μου
TTITLE11=Κύπριος Στράτος - Προσευχή
TTITLE12=Κύπριος Στράτος - Πέτρα θα ρίξω πίσω
TTITLE13=Κύπριος Στράτος - Σήκω να χορέψεις
TTITLE14=Κύπριος Στράτος - Στην καλύβα την δική μου
TTITLE15=Κύπριος Στράτος - Τό 'ξερα, πως θα μού φύγεις
TTITLE16=Κύπριος Στράτος - Βουνά που είσαστε ψηλά
TTITLE17=Κύπριος Στράτος - Ποιον καϋμό να ταγιαντίσω
TTITLE18=Κύπριος Στράτος - Δεν ξανακάνω σφάλματα
TTITLE19=Κύπριος Στράτος - Άλλο πια δεν καρτερώ γράμμα
TTITLE20=Κύπριος Στράτος - Άλλα λογάριαζα και άλλα βρήκα
TTITLE21=Σακελλαρίου Ρίτα-Κύπριος Στράτος - Αν μ' αγαπούσες
TTITLE22=Κύπριος Στράτος - Δεν σ' άκουσα μαννούλα μου
TTITLE23=Κύπριος Στράτος-Λαμπέτη Νίτσα - Άμα θες, σού δίνω αίμα
TTITLE24=Κύπριος Στράτος - Παντού αδικίες
TTITLE25=Κύπριος Στράτος-Σιδέρη Σοφία - Αν η θάλασσα στεριά θα γίνει
EXTD=
EXTT0=
EXTT1=
EXTT2=
EXTT3=
EXTT4=
EXTT5=
EXTT6=
EXTT7=
EXTT8=
EXTT9=
EXTT10=
EXTT11=
EXTT12=
EXTT13=
EXTT14=
EXTT15=
EXTT16=
EXTT17=
EXTT18=
EXTT19=
EXTT20=
EXTT21=
EXTT22=
EXTT23=
EXTT24=
EXTT25=
PLAYORDER=
